<svg width="50" height="50" viewBox="0 0 50 50" fill="none" xmlns="http://www.w3.org/2000/svg">
<mask id="mask0_385_94" style="mask-type:alpha" maskUnits="userSpaceOnUse" x="0" y="0" width="50" height="50">
<circle cx="25" cy="25" r="25" fill="white"/>
</mask>
<g mask="url(#mask0_385_94)">
<circle cx="25" cy="25" r="25" fill="white"/>
<path d="M13.7945 19.7904C14.6107 18.9754 15.6961 18.5267 16.8503 18.5267C18.0046 18.5267 19.0892 18.9754 19.906 19.7904L25 24.8784L30.0948 19.7908V19.7904C30.9107 18.9754 31.9962 18.5267 33.1497 18.5267C34.3039 18.5267 35.3894 18.9754 36.2055 19.7908C37.89 21.4732 37.89 24.2106 36.2055 25.8931L25 37.0833L13.7945 25.8935C12.11 24.2106 12.11 21.4732 13.7945 19.7904ZM27.8423 42.0606L40.1181 29.8009C43.9606 25.9636 43.9606 19.7199 40.1181 15.8829C38.2575 14.024 35.7823 13 33.1497 13C30.5178 13 28.0433 14.0236 26.182 15.8824L25 17.0626L23.8187 15.8824C21.9574 14.0236 19.4821 13 16.8503 13C14.2176 13 11.7424 14.024 9.88182 15.8824C6.03939 19.7199 6.03939 25.9636 9.88182 29.8014L22.1029 42.006V50H27.8423V42.0606Z" fill="#F52D30"/>
</g>
</svg>
