<svg width="21" height="28" viewBox="0 0 21 28" fill="none" xmlns="http://www.w3.org/2000/svg">
<path d="M10.5998 0C4.86063 0 0 4.88878 0 10.6788C0 16.7428 5.63413 22.9441 9.42375 27.3026C9.43863 27.3201 10.0511 28 10.8054 28H10.8719C11.627 28 12.2351 27.3201 12.25 27.3026C15.806 23.2145 21 16.4724 21 10.6788C21 4.8879 17.2086 0 10.5998 0ZM10.9506 26.1283C10.92 26.1589 10.8754 26.1931 10.836 26.2219C10.7958 26.1939 10.752 26.1589 10.7196 26.1283L10.262 25.6015C6.66925 21.4802 1.74913 15.8354 1.74913 10.678C1.74913 5.83731 5.80213 1.7483 10.5989 1.7483C16.5743 1.7483 19.2491 6.23282 19.2491 10.678C19.2491 14.5928 16.457 19.7922 10.9506 26.1283ZM10.5306 5.29829C7.63175 5.29829 5.28062 7.64861 5.28062 10.5485C5.28062 13.4483 7.63175 15.7986 10.5306 15.7986C13.4295 15.7986 15.7806 13.4474 15.7806 10.5485C15.7806 7.64949 13.4304 5.29829 10.5306 5.29829ZM10.5306 14.0486C8.60038 14.0486 6.99038 12.4403 6.99038 10.51C6.99038 8.57964 8.56013 7.00984 10.4904 7.00984C12.4215 7.00984 13.9904 8.57964 13.9904 10.51C13.9913 12.4403 12.4618 14.0486 10.5306 14.0486Z" fill="black" fill-opacity="0.5"/>
</svg>
