<svg width="1920" height="123" viewBox="0 0 1920 123" fill="none" xmlns="http://www.w3.org/2000/svg">
<path d="M1567.25 113.5L1888.5 113.5C1908.38 113.5 1924.5 97.3824 1924.5 77.5002L1924.5 0.000183105L1.0753e-05 1.48603e-05L8.34888e-06 27.5C5.59679e-06 58.9802 25.5198 84.5 57 84.5L458.25 84.5001C468.881 84.5001 477.5 93.1186 477.5 103.75C477.5 114.382 486.119 123 496.75 123L907.5 123C922.412 123 934.5 110.912 934.5 96.0001C934.5 81.0884 946.588 69.0001 961.5 69.0001L1522.75 69.0001C1535.04 69.0001 1545 78.9618 1545 91.2501C1545 103.538 1554.96 113.5 1567.25 113.5Z" fill="#F42E30"/>
</svg>
