<svg width="1920" height="168" viewBox="0 0 1920 168" fill="none" xmlns="http://www.w3.org/2000/svg">
<g clip-path="url(#clip0_1469_45197)">
<rect width="1920" height="168" fill="#F42E30"/>
<path d="M201.144 73.5L57 73.5C25.5198 73.5 0 99.0198 0 130.5L0 168L1920 168C1920 143.147 1899.85 123 1875 123L1559.22 123C1545.55 123 1534.47 111.919 1534.47 98.25C1534.47 84.581 1523.39 73.5 1509.72 73.5L1283.47 73.5C1269.8 73.5 1258.72 84.581 1258.72 98.25C1258.72 111.919 1247.64 123 1233.97 123L884.234 123C852.754 123 827.234 97.4802 827.234 66V63C827.234 31.5198 801.714 6 770.234 6L268.644 6C250.004 6 234.894 21.1104 234.894 39.75C234.894 58.3896 219.783 73.5 201.144 73.5Z" fill="white"/>
</g>
<defs>
<clipPath id="clip0_1469_45197">
<rect width="1920" height="168" fill="white"/>
</clipPath>
</defs>
</svg>
