<svg width="1900" height="165" viewBox="0 0 1920 165" fill="none" xmlns="http://www.w3.org/2000/svg">
<path d="M175.128 97.4167L64 97.4167C28.6538 97.4167 0 68.7629 0 33.4167L0 0L1920 0C1920 25.6199 1899.23 46.3889 1873.61 46.3889L1560.32 46.3889C1535.08 46.3889 1515.46 68.3657 1518.32 93.4444C1521.18 118.523 1501.56 140.5 1476.32 140.5L1247.2 140.5L817.09 140.5C809.772 140.5 803.84 146.432 803.84 153.75C803.84 161.068 797.908 167 790.59 167L244.712 167C225.497 167 209.92 151.423 209.92 132.208C209.92 112.993 194.343 97.4167 175.128 97.4167Z" fill="#F52D30"/>
</svg>
