<svg width="22" height="22" viewBox="0 0 24 24" fill="none" xmlns="http://www.w3.org/2000/svg">
<path d="M16.8889 12C16.8889 14.7 14.7 16.8889 12 16.8889C9.29994 16.8889 7.11111 14.7 7.11111 12C7.11111 9.29994 9.29994 7.11111 12 7.11111C14.7 7.11111 16.8889 9.29994 16.8889 12ZM16.8889 12V13.8333C16.8889 15.5209 18.2569 16.8889 19.9444 16.8889C21.632 16.8889 23 15.5209 23 13.8333V12C23 5.92487 18.0752 1 12 1C5.92487 1 1 5.92487 1 12C1 18.0752 5.92487 23 12 23H16.8889" stroke="black" stroke-opacity="0.5" stroke-width="2" stroke-linecap="round" stroke-linejoin="round"/>
</svg>
