<svg width="16" height="17" viewBox="0 0 16 17" fill="none" xmlns="http://www.w3.org/2000/svg">
<path fill-rule="evenodd" clip-rule="evenodd" d="M5.63098 3.59305V2.29956L10.3692 2.29953V3.59305H5.63098ZM12.0001 3.59305V2.29104C12.0001 1.41857 11.2722 0.708984 10.3779 0.708984L5.62228 0.709011C4.72768 0.709011 4.0001 1.41887 4.0001 2.29107V3.59305H2.80084C1.25642 3.59305 0 4.8184 0 6.32463V13.5598C0 15.0661 1.25642 16.2914 2.80084 16.2914H13.1992C14.7436 16.2914 16 15.0661 16 13.5598V8.52114V6.32463C16 4.8184 14.7436 3.59305 13.1992 3.59305H12.0001ZM14.3691 6.32463V7.72587H11.1753H4.80126H1.63088V6.32463C1.63088 5.69553 2.15579 5.1836 2.80084 5.1836H13.1992C13.8442 5.1836 14.3691 5.69553 14.3691 6.32463ZM11.9907 9.31641V9.9425C11.9907 10.3816 11.6255 10.7378 11.1753 10.7378C10.725 10.7378 10.3598 10.3816 10.3598 9.94223V9.31641H5.6167V9.9425C5.6167 10.3816 5.25151 10.7378 4.80126 10.7378C4.35102 10.7378 3.98582 10.3816 3.98582 9.94223V9.31641H1.63088V13.5598C1.63088 14.1889 2.15579 14.7009 2.80084 14.7009H13.1992C13.8442 14.7009 14.3691 14.1889 14.3691 13.5598V9.31641H11.9907Z" fill="#3A2449"/>
</svg>
