<svg width="132" height="60" viewBox="0 0 132 60" fill="none" xmlns="http://www.w3.org/2000/svg">
<path d="M5.28715 5.2397C5.92202 4.61096 6.76681 4.2646 7.66496 4.2646C8.56311 4.2646 9.40725 4.61096 10.0428 5.2397L14.0066 9.1659L17.9712 5.24002C18.606 4.61129 19.4508 4.2646 20.3483 4.2646C21.2465 4.2646 22.0909 4.61097 22.7261 5.24002C24.037 6.53825 24.037 8.65049 22.7261 9.94872L14.0066 18.5836L5.28715 9.94904C3.97625 8.65049 3.97625 6.53825 5.28715 5.2397ZM28.9261 34.2327H23.5471L17.8471 41.8075H16.2183V22.4245L25.7707 12.9644C28.7608 10.0032 28.7608 5.18527 25.7707 2.22462C24.3228 0.790142 22.397 0 20.3483 0C18.3003 0 16.3748 0.789822 14.9263 2.2243L14.0066 3.13478L13.0876 2.2243C11.6391 0.789822 9.71296 0 7.66496 0C5.61632 0 3.69048 0.790138 2.24264 2.2243C-0.747546 5.18526 -0.747546 10.0032 2.24264 12.9644L11.7523 22.3822V53H16.2183V45.9253H18.4019L23.5963 53H29L21.9058 43.4448L28.9261 34.2327Z" fill="#F52D30"/>
<path d="M41.6405 46.0318C41.6405 46.7102 41.4659 47.3369 41.1154 47.9118C40.7656 48.4861 40.2681 48.9471 39.6244 49.2946C38.9797 49.6414 38.2196 49.8152 37.3418 49.8152C36.4322 49.8152 35.6837 49.6118 35.096 49.2047C34.5083 48.7974 34.2141 48.195 34.2141 47.3971C34.2141 46.8381 34.3636 46.3808 34.6612 46.0259C34.9591 45.6709 35.3653 45.3936 35.8807 45.1939C36.3964 44.9946 36.9797 44.8508 37.6316 44.7625C37.9213 44.7229 38.2637 44.6752 38.6582 44.6194C39.0527 44.5632 39.4507 44.4999 39.8538 44.4275C40.2559 44.3558 40.6205 44.2719 40.9468 44.1761C41.2724 44.0807 41.5037 43.9768 41.6405 43.8648V46.0318ZM43.561 35.3351C42.8283 34.86 42.0193 34.5191 41.1337 34.3113C40.2483 34.1039 39.3586 34 38.4647 34C37.1688 34 35.9851 34.1897 34.9151 34.569C33.8444 34.948 32.9383 35.5147 32.198 36.269C31.457 37.0232 30.9256 37.959 30.6038 39.0764L34.6851 39.6506C34.9028 39.0205 35.3232 38.4737 35.9471 38.0108C36.571 37.5479 37.4183 37.3164 38.4889 37.3164C39.5033 37.3164 40.2804 37.5638 40.8197 38.0585C41.3589 38.5536 41.6289 39.252 41.6289 40.1538V40.2255C41.6289 40.6407 41.4735 40.9461 41.1636 41.1413C40.854 41.3372 40.361 41.4807 39.6848 41.5721C39.0081 41.6641 38.1268 41.7661 37.0401 41.8775C36.1387 41.9733 35.2665 42.127 34.4258 42.3388C33.5845 42.5503 32.8294 42.8595 32.1615 43.2662C31.4935 43.6736 30.9662 44.2163 30.5799 44.8945C30.1935 45.5729 30 46.4311 30 47.4688C30 48.6738 30.2715 49.6876 30.8149 50.5095C31.3589 51.3315 32.0992 51.9522 33.0371 52.3708C33.9747 52.7901 35.0315 53 36.2069 53C37.1728 53 38.016 52.8659 38.7365 52.5989C39.4573 52.3312 40.057 51.9762 40.5356 51.5333C41.0151 51.09 41.3873 50.6131 41.6528 50.1025H41.7975V52.6285H46V40.3213C46 39.1004 45.7766 38.0825 45.3295 37.2687C44.8834 36.4543 44.2932 35.8101 43.561 35.3351Z" fill="#F52D30"/>
<path d="M68.7234 34H67.5618L61.9256 47.792L56.4382 34H55.3133H52.8662H51V53H55.3133V40.1971L60.3686 53H63.4952L68.7234 40.0588V53H73V34H71.1712H68.7234Z" fill="#F52D30"/>
<path d="M77 53H81.2678V37.6735H88.6949V53H93V34H77V53Z" fill="#F52D30"/>
<path d="M104.085 48.2801H103.892L99.6264 34H95L101.711 53.3029L101.338 54.3252C101.073 55.0392 100.749 55.5498 100.368 55.8577C99.9862 56.1653 99.5461 56.3232 99.0488 56.3315C98.5507 56.3398 97.984 56.2494 97.3496 56.0605L96.3379 59.5327C96.6345 59.6555 97.0341 59.7639 97.5364 59.8585C98.0383 59.9528 98.5864 60 99.1813 60C100.321 60 101.303 59.8095 102.127 59.4278C102.95 59.0457 103.647 58.496 104.217 57.7778C104.787 57.0599 105.245 56.2003 105.59 55.1992L113 34H108.361L104.085 48.2801Z" fill="#F52D30"/>
<path d="M127.061 48.0405C126.711 48.5037 126.279 48.857 125.763 49.1005C125.246 49.3443 124.663 49.4663 124.013 49.4663C123.094 49.4663 122.295 49.2247 121.616 48.7412C120.937 48.258 120.411 47.5673 120.037 46.669C119.663 45.77 119.476 44.6938 119.476 43.4402C119.476 42.2023 119.665 41.1401 120.043 40.2533C120.421 39.3669 120.951 38.6861 121.634 38.211C122.317 37.7356 123.11 37.4984 124.013 37.4984C125.077 37.4984 125.929 37.7959 126.567 38.3908C127.206 38.9857 127.61 39.7268 127.781 40.6129H132C131.903 39.2876 131.504 38.1271 130.805 37.1326C130.106 36.1384 129.169 35.3681 127.994 34.8209C126.819 34.2737 125.472 34 123.952 34C122.123 34 120.539 34.4014 119.202 35.2039C117.864 36.0067 116.83 37.1251 116.098 38.5581C115.366 39.9921 115 41.643 115 43.512C115 45.373 115.36 47.0161 116.08 48.4419C116.799 49.8674 117.827 50.9833 119.165 51.7902C120.502 52.597 122.106 53 123.976 53C125.545 53 126.911 52.7181 128.074 52.1554C129.236 51.5926 130.155 50.8097 130.83 49.8075C131.504 48.8052 131.895 47.6531 132 46.3512H127.781C127.651 47.0145 127.411 47.5773 127.061 48.0405Z" fill="#F52D30"/>
<path d="M61.6399 30.1278C60.9865 30.1278 60.4254 29.9844 59.9567 29.6974C59.4908 29.4105 59.1314 29.0142 58.8786 28.5085C58.6286 28 58.5036 27.4148 58.5036 26.7528C58.5036 26.0881 58.6314 25.5014 58.8871 24.9929C59.1428 24.4815 59.5036 24.0838 59.9695 23.7997C60.4382 23.5128 60.9922 23.3693 61.6314 23.3693C62.1626 23.3693 62.6328 23.4673 63.0419 23.6634C63.4538 23.8565 63.782 24.1307 64.0263 24.4858C64.2706 24.8381 64.4098 25.25 64.4439 25.7216H62.9695C62.9098 25.4062 62.7678 25.1435 62.5433 24.9332C62.3217 24.7202 62.0249 24.6136 61.6527 24.6136C61.3374 24.6136 61.0604 24.6989 60.8217 24.8693C60.5831 25.0369 60.397 25.2784 60.2635 25.5938C60.1328 25.9091 60.0675 26.2869 60.0675 26.7273C60.0675 27.1733 60.1328 27.5568 60.2635 27.8778C60.3942 28.196 60.5774 28.4418 60.8132 28.6151C61.0518 28.7855 61.3317 28.8707 61.6527 28.8707C61.88 28.8707 62.0831 28.8281 62.2621 28.7429C62.4439 28.6548 62.5959 28.5284 62.718 28.3636C62.8402 28.1989 62.924 27.9986 62.9695 27.7628H64.4439C64.407 28.2259 64.2706 28.6364 64.0348 28.9943C63.799 29.3494 63.478 29.6278 63.0717 29.8295C62.6655 30.0284 62.1882 30.1278 61.6399 30.1278ZM65.2354 24.7202V23.4545H70.9627V24.7202H68.8448V30H67.3533V24.7202H65.2354ZM73.805 30.1321C73.3903 30.1321 73.0167 30.0582 72.6843 29.9105C72.3548 29.7599 72.0934 29.5384 71.9002 29.2457C71.7099 28.9531 71.6147 28.5923 71.6147 28.1634C71.6147 27.794 71.6829 27.4886 71.8192 27.2472C71.9556 27.0057 72.1417 26.8125 72.3775 26.6676C72.6133 26.5227 72.8789 26.4134 73.1744 26.3395C73.4727 26.2628 73.7809 26.2074 74.0991 26.1733C74.4826 26.1335 74.7937 26.098 75.0323 26.0668C75.271 26.0327 75.4442 25.9815 75.5522 25.9134C75.663 25.8423 75.7184 25.733 75.7184 25.5852V25.5597C75.7184 25.2386 75.6232 24.9901 75.4329 24.8139C75.2425 24.6378 74.9684 24.5497 74.6104 24.5497C74.2326 24.5497 73.9329 24.6321 73.7113 24.7969C73.4925 24.9616 73.3448 25.1562 73.2681 25.3807L71.8278 25.1761C71.9414 24.7784 72.1289 24.446 72.3903 24.179C72.6516 23.9091 72.9712 23.7074 73.3491 23.5739C73.7269 23.4375 74.1445 23.3693 74.6019 23.3693C74.9173 23.3693 75.2312 23.4062 75.5437 23.4801C75.8562 23.554 76.1417 23.6761 76.4002 23.8466C76.6587 24.0142 76.8661 24.2429 77.0224 24.5327C77.1815 24.8224 77.261 25.1847 77.261 25.6193V30H75.7781V29.1009H75.7269C75.6332 29.2827 75.5011 29.4531 75.3306 29.6122C75.163 29.7685 74.9513 29.8949 74.6957 29.9915C74.4428 30.0852 74.146 30.1321 73.805 30.1321ZM74.2056 28.9986C74.5153 28.9986 74.7837 28.9375 75.011 28.8153C75.2383 28.6903 75.413 28.5256 75.5352 28.321C75.6602 28.1165 75.7227 27.8935 75.7227 27.652V26.8807C75.6744 26.9205 75.592 26.9574 75.4755 26.9915C75.3619 27.0256 75.234 27.0554 75.092 27.081C74.9499 27.1065 74.8093 27.1293 74.6701 27.1491C74.5309 27.169 74.4102 27.1861 74.3079 27.2003C74.0778 27.2315 73.8718 27.2827 73.69 27.3537C73.5082 27.4247 73.3647 27.5241 73.2596 27.652C73.1545 27.777 73.1019 27.9389 73.1019 28.1378C73.1019 28.4219 73.2056 28.6364 73.413 28.7812C73.6204 28.9261 73.8846 28.9986 74.2056 28.9986ZM78.386 30L80.8022 26.6207L78.4073 23.4545H80.1886L82.0508 26.0923H82.4173V23.4545H83.9599V26.0923H84.3178L86.18 23.4545H87.9613L85.5792 26.6207L87.9826 30H86.163L84.3008 27.358H83.9599V30H82.4173V27.358H82.0763L80.2056 30H78.386ZM90.6236 27.9119L93.2443 23.4545H94.8295V30H93.3381V25.5384L90.7259 30H89.1364V23.4545H90.6236V27.9119ZM96.4137 32.4545V23.4545H97.9308V24.5369H98.0202C98.0998 24.3778 98.212 24.2088 98.3569 24.0298C98.5018 23.848 98.6978 23.6932 98.945 23.5653C99.1921 23.4347 99.5075 23.3693 99.891 23.3693C100.397 23.3693 100.853 23.4986 101.259 23.7571C101.668 24.0128 101.992 24.392 102.23 24.8949C102.472 25.3949 102.593 26.0085 102.593 26.7358C102.593 27.4545 102.475 28.0653 102.239 28.5682C102.003 29.071 101.682 29.4545 101.276 29.7188C100.87 29.983 100.409 30.1151 99.8952 30.1151C99.5202 30.1151 99.2092 30.0526 98.962 29.9276C98.7148 29.8026 98.516 29.652 98.3654 29.4759C98.2177 29.2969 98.1026 29.1278 98.0202 28.9688H97.9563V32.4545H96.4137ZM97.9265 26.7273C97.9265 27.1506 97.9862 27.5213 98.1055 27.8395C98.2276 28.1577 98.4023 28.4062 98.6296 28.5852C98.8597 28.7614 99.1381 28.8494 99.4648 28.8494C99.8058 28.8494 100.091 28.7585 100.321 28.5767C100.551 28.392 100.725 28.1406 100.841 27.8224C100.961 27.5014 101.02 27.1364 101.02 26.7273C101.02 26.321 100.962 25.9602 100.846 25.6449C100.729 25.3295 100.556 25.0824 100.326 24.9034C100.096 24.7244 99.8086 24.6349 99.4648 24.6349C99.1353 24.6349 98.8555 24.7216 98.6254 24.8949C98.3952 25.0682 98.2205 25.3111 98.1012 25.6236C97.9847 25.9361 97.9265 26.304 97.9265 26.7273ZM106.769 30.1278C106.13 30.1278 105.576 29.9872 105.107 29.706C104.638 29.4247 104.275 29.0312 104.016 28.5256C103.76 28.0199 103.632 27.429 103.632 26.7528C103.632 26.0767 103.76 25.4844 104.016 24.9759C104.275 24.4673 104.638 24.0724 105.107 23.7912C105.576 23.5099 106.13 23.3693 106.769 23.3693C107.408 23.3693 107.962 23.5099 108.431 23.7912C108.9 24.0724 109.262 24.4673 109.517 24.9759C109.776 25.4844 109.905 26.0767 109.905 26.7528C109.905 27.429 109.776 28.0199 109.517 28.5256C109.262 29.0312 108.9 29.4247 108.431 29.706C107.962 29.9872 107.408 30.1278 106.769 30.1278ZM106.777 28.892C107.124 28.892 107.414 28.7969 107.647 28.6065C107.88 28.4134 108.053 28.1548 108.167 27.831C108.283 27.5071 108.341 27.1463 108.341 26.7486C108.341 26.348 108.283 25.9858 108.167 25.6619C108.053 25.3352 107.88 25.0753 107.647 24.8821C107.414 24.6889 107.124 24.5923 106.777 24.5923C106.422 24.5923 106.127 24.6889 105.891 24.8821C105.658 25.0753 105.483 25.3352 105.367 25.6619C105.253 25.9858 105.196 26.348 105.196 26.7486C105.196 27.1463 105.253 27.5071 105.367 27.831C105.483 28.1548 105.658 28.4134 105.891 28.6065C106.127 28.7969 106.422 28.892 106.777 28.892ZM111.214 30V23.4545H113.963C114.739 23.4545 115.351 23.6094 115.8 23.919C116.251 24.2287 116.477 24.6605 116.477 25.2145C116.477 25.581 116.349 25.8807 116.094 26.1136C115.841 26.3437 115.496 26.4986 115.058 26.5781C115.402 26.6065 115.703 26.6932 115.962 26.8381C116.223 26.983 116.428 27.1733 116.575 27.4091C116.723 27.6449 116.797 27.9162 116.797 28.223C116.797 28.5838 116.702 28.8977 116.511 29.1648C116.324 29.429 116.05 29.6349 115.689 29.7827C115.331 29.9276 114.896 30 114.385 30H111.214ZM112.659 28.7855H114.385C114.669 28.7855 114.892 28.7187 115.054 28.5852C115.216 28.4489 115.297 28.2642 115.297 28.0312C115.297 27.7614 115.216 27.5497 115.054 27.3963C114.892 27.2401 114.669 27.1619 114.385 27.1619H112.659V28.7855ZM112.659 26.1648H113.993C114.203 26.1648 114.384 26.1349 114.534 26.0753C114.685 26.0128 114.8 25.9261 114.879 25.8153C114.959 25.7017 114.999 25.5668 114.999 25.4105C114.999 25.1861 114.906 25.0099 114.722 24.8821C114.54 24.7543 114.287 24.6903 113.963 24.6903H112.659V26.1648ZM118.07 30V23.4545H119.613V26.0966H120.175L122.144 23.4545H124.002L121.577 26.6676L124.027 30H122.161L120.367 27.5327H119.613V30H118.07ZM126.786 30.1321C126.371 30.1321 125.997 30.0582 125.665 29.9105C125.335 29.7599 125.074 29.5384 124.881 29.2457C124.69 28.9531 124.595 28.5923 124.595 28.1634C124.595 27.794 124.663 27.4886 124.8 27.2472C124.936 27.0057 125.122 26.8125 125.358 26.6676C125.594 26.5227 125.859 26.4134 126.155 26.3395C126.453 26.2628 126.761 26.2074 127.08 26.1733C127.463 26.1335 127.774 26.098 128.013 26.0668C128.251 26.0327 128.425 25.9815 128.533 25.9134C128.643 25.8423 128.699 25.733 128.699 25.5852V25.5597C128.699 25.2386 128.604 24.9901 128.413 24.8139C128.223 24.6378 127.949 24.5497 127.591 24.5497C127.213 24.5497 126.913 24.6321 126.692 24.7969C126.473 24.9616 126.325 25.1562 126.249 25.3807L124.808 25.1761C124.922 24.7784 125.109 24.446 125.371 24.179C125.632 23.9091 125.952 23.7074 126.33 23.5739C126.707 23.4375 127.125 23.3693 127.582 23.3693C127.898 23.3693 128.212 23.4062 128.524 23.4801C128.837 23.554 129.122 23.6761 129.381 23.8466C129.639 24.0142 129.847 24.2429 130.003 24.5327C130.162 24.8224 130.241 25.1847 130.241 25.6193V30H128.759V29.1009H128.707C128.614 29.2827 128.482 29.4531 128.311 29.6122C128.143 29.7685 127.932 29.8949 127.676 29.9915C127.423 30.0852 127.126 30.1321 126.786 30.1321ZM127.186 28.9986C127.496 28.9986 127.764 28.9375 127.991 28.8153C128.219 28.6903 128.393 28.5256 128.516 28.321C128.641 28.1165 128.703 27.8935 128.703 27.652V26.8807C128.655 26.9205 128.572 26.9574 128.456 26.9915C128.342 27.0256 128.214 27.0554 128.072 27.081C127.93 27.1065 127.79 27.1293 127.651 27.1491C127.511 27.169 127.391 27.1861 127.288 27.2003C127.058 27.2315 126.852 27.2827 126.67 27.3537C126.489 27.4247 126.345 27.5241 126.24 27.652C126.135 27.777 126.082 27.9389 126.082 28.1378C126.082 28.4219 126.186 28.6364 126.393 28.7812C126.601 28.9261 126.865 28.9986 127.186 28.9986Z" fill="#F52D30"/>
</svg>
