<svg width="46" height="46" viewBox="0 0 46 46" fill="none" xmlns="http://www.w3.org/2000/svg">
<path d="M32.637 0H13.363C4.991 0 0 4.991 0 13.363V32.637C0 39.1 2.967 43.539 8.188 45.218C9.706 45.747 11.454 46 13.363 46H32.637C34.546 46 36.294 45.747 37.812 45.218C43.033 43.539 46 39.1 46 32.637V13.363C46 4.991 41.009 0 32.637 0ZM42.55 32.637C42.55 37.559 40.618 40.664 36.731 41.952C34.5 37.559 29.21 34.431 23 34.431C16.79 34.431 11.523 37.536 9.269 41.952H9.246C5.405 40.71 3.45 37.582 3.45 32.66V13.363C3.45 6.877 6.877 3.45 13.363 3.45H32.637C39.123 3.45 42.55 6.877 42.55 13.363V32.637Z" fill="#E2E2E2"/>
<path d="M23.0044 13.8C18.4504 13.8 14.7703 17.48 14.7703 22.034C14.7703 26.588 18.4504 30.291 23.0044 30.291C27.5584 30.291 31.2384 26.588 31.2384 22.034C31.2384 17.48 27.5584 13.8 23.0044 13.8Z" fill="#D9D9D9"/>
</svg>
