<svg width="50" height="50" viewBox="0 0 50 50" fill="none" xmlns="http://www.w3.org/2000/svg">
<circle cx="25" cy="25" r="25" fill="#F52D30"/>
<mask id="mask0_262_7" style="mask-type:alpha" maskUnits="userSpaceOnUse" x="0" y="0" width="50" height="50">
<circle cx="25" cy="25" r="25" fill="#F52D30"/>
</mask>
<g mask="url(#mask0_262_7)">
<path d="M13.9189 19.5567C14.7328 18.7435 15.8153 18.2959 16.9664 18.2959C18.1175 18.2959 19.1992 18.7435 20.0138 19.5567L25.094 24.6329L30.1749 19.5571V19.5567C30.9886 18.7435 32.0711 18.2959 33.2215 18.2959C34.3726 18.2959 35.4551 18.7435 36.269 19.5571C37.949 21.2355 37.949 23.9667 36.269 25.6452L25.094 36.8096L13.9189 25.6457C12.239 23.9667 12.239 21.2355 13.9189 19.5567ZM27.9285 41.7754L40.171 29.5441C44.0031 25.7156 44.0031 19.4864 40.171 15.6582C38.3154 13.8036 35.847 12.782 33.2215 12.782C30.5967 12.782 28.129 13.8032 26.2728 15.6577L25.094 16.8352L23.9159 15.6577C22.0596 13.8032 19.5911 12.782 16.9664 12.782C14.3408 12.782 11.8724 13.8036 10.0168 15.6577C6.18483 19.4864 6.18483 25.7156 10.0168 29.5445L22.2047 41.7209V103.571H27.9285V41.7754Z" fill="white"/>
</g>
</svg>
