<svg width="110" height="48" viewBox="0 0 110 48" fill="none" xmlns="http://www.w3.org/2000/svg">
<path d="M9.72852 42.3306V16.502H13.3531V33.4136H14.739L19.4296 27.3664H23.9071L18.1504 34.746L24.0137 42.3306H19.5362L15.272 36.6934H13.4597V42.3306H9.72852Z" fill="#F42E30"/>
<path d="M30.5157 42.6359C29.5562 42.6359 28.5968 42.4309 27.8505 42.1234C27.1043 41.8159 26.4647 41.3035 25.9316 40.586C25.5052 39.8685 25.292 39.0486 25.292 38.1261C25.292 37.3062 25.3986 36.5887 25.825 36.0762C26.1448 35.5638 26.5713 35.0513 27.1043 34.7438C27.6373 34.4363 28.2769 34.1288 29.0232 34.0263C29.7694 33.8213 30.4091 33.7188 31.2619 33.6163C32.2214 33.5139 32.9676 33.4114 33.5006 33.4114C34.0336 33.3089 34.4601 33.2064 34.7799 33.1039C34.9931 32.8989 35.2063 32.6939 35.2063 32.3864V32.2839C35.2063 31.5665 34.9931 30.9515 34.5667 30.5415C34.1403 30.1315 33.5006 29.9265 32.6478 29.9265C31.7949 29.9265 31.0487 30.1315 30.5157 30.5415C29.9826 30.9515 29.6628 31.3615 29.4496 31.8739L26.0382 31.3615C26.358 30.439 26.7845 29.7215 27.4241 29.1066C28.0637 28.4916 28.81 27.9791 29.6628 27.6717C30.5157 27.3642 31.5817 27.1592 32.6478 27.1592C33.394 27.1592 34.1403 27.2617 34.8865 27.3642C35.6327 27.4667 36.2724 27.7741 36.912 28.1841C37.5516 28.5941 37.9781 29.1066 38.4045 29.7215C38.8309 30.3365 38.9375 31.259 38.9375 32.1814V42.2259H35.4195V40.176H35.3129C35.0997 40.586 34.7799 40.996 34.3535 41.3035C33.927 41.7134 33.5006 41.9184 32.861 42.2259C32.0081 42.5334 31.3685 42.6359 30.5157 42.6359ZM31.4751 39.971C32.2214 39.971 32.861 39.8685 33.394 39.561C33.927 39.2536 34.3535 38.9461 34.6733 38.4336C34.9931 37.9211 35.0997 37.4087 35.0997 36.8962V35.1538C34.9931 35.2563 34.7799 35.3588 34.5667 35.3588C34.2469 35.4613 34.0336 35.4613 33.6072 35.5638C33.2874 35.6662 32.9676 35.6662 32.6478 35.7687C32.328 35.7687 32.0081 35.8712 31.7949 35.8712C31.2619 35.9737 30.7289 36.0762 30.3025 36.1787C29.876 36.3837 29.5562 36.5887 29.2364 36.8962C29.0232 37.2037 28.81 37.5112 28.81 38.0236C28.81 38.6386 29.0232 39.1511 29.5562 39.4586C30.0892 39.8685 30.7289 39.971 31.4751 39.971Z" fill="#F42E30"/>
<path d="M45.9731 27.2627V42.2269H42.4551V27.2627H45.9731ZM51.4099 38.1271L55.994 27.2627H58.9789L52.6892 42.2269H50.1307L43.9476 27.2627H46.9325L51.4099 38.1271ZM56.9534 42.2269V27.2627H60.4714V42.2269H56.9534Z" fill="#F42E30"/>
<path d="M64.2041 42.2269V27.2627H77.3166V42.2269H73.7986V30.1325H67.7221V42.2269H64.2041Z" fill="#F42E30"/>
<path d="M82.8593 47.8631C82.3263 47.8631 81.8998 47.8631 81.4734 47.7606C81.047 47.6581 80.7272 47.5556 80.514 47.4531L81.3668 44.6858C81.8998 44.7883 82.3263 44.8908 82.7527 44.8908C83.1791 44.8908 83.4989 44.7883 83.8187 44.4808C84.1386 44.2758 84.4584 43.8658 84.6716 43.2509L84.9914 42.4309L79.3413 27.2617H83.2857L86.9103 38.5361H87.1235L90.7481 27.1592H94.6925L88.5094 43.9683C88.1896 44.7883 87.8698 45.4033 87.3367 46.0182C86.8037 46.6332 86.2707 47.0432 85.631 47.3507C84.6716 47.6581 83.8187 47.8631 82.8593 47.8631Z" fill="#F42E30"/>
<path d="M103.328 42.4317C101.729 42.4317 100.449 42.1243 99.2768 41.4068C98.2107 40.7918 97.3579 39.8694 96.7182 38.6394C96.0786 37.512 95.8654 36.1796 95.7588 34.6421C95.7588 33.1047 96.0786 31.7723 96.6116 30.6448C97.2513 29.5174 98.1041 28.595 99.1702 27.8775C100.236 27.2625 101.622 26.8525 103.115 26.8525C104.394 26.8525 105.46 27.0575 106.526 27.4675C107.485 27.8775 108.338 28.4925 108.871 29.3124C109.404 30.1324 109.831 31.0548 109.831 32.1823H106.313C106.206 31.4648 105.78 30.8498 105.247 30.3374C104.714 29.8249 103.967 29.6199 103.115 29.6199C102.368 29.6199 101.729 29.8249 101.089 30.2349C100.556 30.6448 100.13 31.1573 99.8098 31.8748C99.49 32.5922 99.3834 33.4122 99.3834 34.4372C99.3834 35.4621 99.49 36.3846 99.8098 37.102C100.13 37.8195 100.556 38.4344 101.089 38.7419C101.622 39.1519 102.368 39.3569 103.115 39.3569C103.648 39.3569 104.181 39.2544 104.607 39.0494C105.033 38.8444 105.353 38.5369 105.673 38.2295C105.993 37.8195 106.206 37.4095 106.313 36.897H109.831C109.724 37.922 109.404 38.9469 108.871 39.6644C108.338 40.4843 107.592 41.0993 106.633 41.6118C105.78 42.2268 104.607 42.4317 103.328 42.4317Z" fill="#F42E30"/>
<path d="M11.5401 19.679L1.83895 10.352C-0.612982 7.9946 -0.612982 4.09979 1.83895 1.74241C3.01161 0.614969 4.61069 0 6.31638 0C8.02207 0 9.62115 0.614969 10.7938 1.74241L11.5401 2.45988L12.2863 1.74241C13.459 0.614969 15.058 0 16.7637 0C18.4694 0 20.0685 0.614969 21.2412 1.74241C23.6931 4.09979 23.6931 7.9946 21.2412 10.352L11.5401 19.679ZM6.31638 3.38233C5.57014 3.38233 4.93051 3.68981 4.39748 4.20229C3.33142 5.22723 3.33142 6.96965 4.39748 7.9946L11.5401 14.8617L18.6826 7.9946C19.7487 6.96965 19.7487 5.22723 18.6826 4.20229C18.1496 3.68981 17.51 3.38233 16.7637 3.38233C16.0175 3.38233 15.3779 3.68981 14.8448 4.20229L11.5401 7.37963L8.23528 4.20229C7.70225 3.68981 7.06262 3.38233 6.31638 3.38233Z" fill="#F42E30"/>
</svg>
