<svg width="23" height="25" viewBox="0 0 23 25" fill="none" xmlns="http://www.w3.org/2000/svg">
<path d="M4.8524 23.5339H17.7741C19.7789 23.5339 21.4608 21.9703 21.4608 19.9731C21.4608 18.6056 20.9243 17.553 20.0785 16.7809C19.2569 16.0309 18.1737 15.5706 17.0872 15.2795C15.0082 14.7224 12.6687 14.7246 11.4616 14.7257C11.4101 14.7257 11.3606 14.7258 11.3132 14.7258C11.2659 14.7258 11.2164 14.7257 11.1649 14.7257C9.95775 14.7246 7.61828 14.7224 5.53931 15.2795C4.45281 15.5706 3.36955 16.0309 2.548 16.7809C1.70218 17.553 1.16565 18.6056 1.16565 19.9731C1.16565 21.9703 2.84758 23.5339 4.8524 23.5339Z" stroke="black" stroke-opacity="0.5" stroke-width="1.5" stroke-linecap="round" stroke-linejoin="round"/>
<path d="M11.3134 12.0743C14.2913 12.0743 16.7622 9.75566 16.7622 6.82701C16.7622 3.89836 14.2913 1.57971 11.3134 1.57971C8.33539 1.57971 5.86456 3.89837 5.86456 6.82701C5.86456 9.75565 8.33539 12.0743 11.3134 12.0743Z" stroke="black" stroke-opacity="0.5" stroke-width="1.5" stroke-linecap="round" stroke-linejoin="round"/>
</svg>
