<svg width="1920" height="167" viewBox="0 0 1920 167" fill="none" xmlns="http://www.w3.org/2000/svg">
<path d="M176.659 97.4167L64 97.4167C28.6538 97.4167 0 68.7629 0 33.4167L0 0L1934 0C1934 25.6199 1913.23 46.3889 1887.61 46.3889L1571.36 46.3889C1546.12 46.3889 1526.51 68.3726 1529.39 93.4444C1532.27 118.516 1512.66 140.5 1487.43 140.5L1256.29 140.5L822.951 140.5C815.634 140.5 809.701 146.432 809.701 153.75C809.701 161.068 803.769 167 796.451 167L246.242 167C227.027 167 211.451 151.423 211.451 132.208C211.451 112.993 195.874 97.4167 176.659 97.4167Z" fill="#F42E30"/>
</svg>
