<svg width="34" height="21" viewBox="0 0 34 21" fill="none" xmlns="http://www.w3.org/2000/svg">
<path d="M16.6574 20.907H18.6861C18.6861 20.907 19.2952 20.8303 19.6083 20.4617C19.8917 20.1223 19.8917 19.4912 19.8917 19.4912C19.8917 19.4912 19.8492 16.5381 21.1128 16.1065C22.3609 15.6765 23.9646 18.969 25.6532 20.2298C26.931 21.1835 27.91 20.9823 27.91 20.9823L32.4504 20.9209C32.4504 20.9209 34.8204 20.7673 33.6984 18.7371C33.6134 18.5682 33.0468 17.246 30.3225 14.5079C27.4694 11.6469 27.8533 12.1076 31.2859 7.15511C33.3726 4.14058 34.2098 2.29471 33.9548 1.50998C33.6998 0.757502 32.167 0.957138 32.167 0.957138L27.0585 0.987852C27.0585 0.987852 26.676 0.926425 26.3913 1.11071C26.1221 1.29499 25.938 1.70962 25.938 1.70962C25.938 1.70962 25.1276 4.04845 24.0496 6.03253C21.7801 10.2157 20.8578 10.4476 20.4881 10.185C19.6239 9.58607 19.8364 7.75555 19.8364 6.44716C19.8364 2.38685 20.4031 0.694539 18.7286 0.264552C18.1761 0.126341 17.7638 0.0188441 16.3443 0.0034874C14.514 -0.0118693 12.9812 0.00348659 12.1014 0.479545C11.5206 0.786679 11.0673 1.47773 11.3506 1.50844C11.6906 1.55451 12.4556 1.74033 12.8537 2.32542C13.3779 3.09326 13.3637 4.83317 13.3637 4.83317C13.3637 4.83317 13.6626 9.61679 12.6554 10.2003C11.9612 10.5996 11.0234 9.77035 8.99471 5.9711C7.95772 4.01773 7.16439 1.87854 7.16439 1.87854C7.16439 1.87854 7.00855 1.47927 6.73939 1.26427C6.41214 1.00321 5.95739 0.926425 5.95739 0.926425L1.10533 0.957138C1.10533 0.957138 0.381419 0.972496 0.110837 1.3257C-0.129995 1.63283 0.0966702 2.26246 0.0966702 2.26246C0.0966702 2.26246 3.9004 11.908 8.19997 16.7684C12.1723 21.1988 16.6574 20.907 16.6574 20.907Z" fill="#222222"/>
</svg>
