<svg width="23" height="25" viewBox="0 0 23 25" fill="none" xmlns="http://www.w3.org/2000/svg">
<path d="M19.1459 10.3965H18.7845V7.03155C18.7845 5.3 18.0611 3.63937 16.7733 2.41498C15.4855 1.19061 13.7389 0.502747 11.9177 0.502747C10.0965 0.502747 8.3499 1.19061 7.06213 2.41498C5.77436 3.63937 5.05089 5.3 5.05089 7.03155V10.3965H4.68948C3.6351 10.3965 2.61604 10.6727 1.87049 11.3816C1.12493 12.0905 0.915659 12.9016 0.915659 13.904L0.915649 20.7764C0.915649 21.7788 1.12492 22.6045 1.87048 23.3133C2.61603 24.0223 3.6351 24.5027 4.68948 24.5027H19.1459C20.2002 24.5027 21.171 24.0222 21.9167 23.3133C22.6624 22.6045 22.9156 21.7788 22.9156 20.7764V13.904C22.9156 12.9016 22.6624 12.0905 21.9167 11.3816C21.1712 10.6727 20.2002 10.3965 19.1459 10.3965ZM6.9717 7.03155C6.9717 5.84681 7.54295 4.49888 8.42405 3.66114C9.30517 2.8234 10.6715 2.25741 11.9177 2.25741C13.1638 2.25741 14.482 2.8234 15.3631 3.66114C16.2442 4.49888 16.9051 5.84681 16.9051 7.03155V10.3965H11.9177H6.9717V7.03155ZM20.9529 20.7764C20.9529 21.232 20.7625 21.6691 20.4237 21.9913C20.0848 22.3135 19.6251 22.6001 19.1459 22.6001C19.1459 22.6001 5.16874 22.6001 4.68948 22.6001C4.21022 22.6001 3.7506 22.3135 3.41171 21.9913C3.07282 21.6691 2.88243 21.232 2.88243 20.7764C2.88243 20.7764 2.88243 14.3596 2.88243 13.904C2.88243 13.4483 3.07282 13.0112 3.41171 12.6891C3.7506 12.3669 4.21022 12.1859 4.68948 12.1859H19.1459C19.6251 12.1859 20.0848 12.3669 20.4237 12.6891C20.7625 13.0112 20.9529 13.4483 20.9529 13.904V20.7764Z" fill="black" fill-opacity="0.5"/>
</svg>
