<svg width="1920" height="162" viewBox="0 0 1920 162" fill="none" xmlns="http://www.w3.org/2000/svg">
<path d="M176.17 67.5H56C25.0721 67.5 0 92.5721 0 123.5V162H1920C1920 137.147 1899.85 117 1875 117H1537.71C1524.04 117 1512.96 105.919 1512.96 92.25C1512.96 78.581 1501.88 67.5 1488.21 67.5H1261.23C1247.56 67.5 1236.48 78.581 1236.48 92.25C1236.48 105.919 1225.4 117 1211.73 117H859.84C828.912 117 803.84 91.9279 803.84 61V56C803.84 25.0721 778.768 0 747.84 0H243.67C225.03 0 209.92 15.1104 209.92 33.75C209.92 52.3896 194.81 67.5 176.17 67.5Z" fill="#8269EF"/>
</svg>
