<svg width="19" height="19" viewBox="0 0 19 19" fill="none" xmlns="http://www.w3.org/2000/svg">
<path d="M12.4628 14.2762C9.20264 16.5937 4.71032 16.0268 2.12826 12.9721C-0.453805 9.91739 -0.264211 5.39392 2.56441 2.56594C5.3923 -0.263288 9.91671 -0.453681 12.9723 2.12796C16.028 4.7096 16.5952 9.20185 14.2773 12.4619L18.6889 16.8764L16.8757 18.6894L12.4628 14.2762ZM8.00408 2.87621C5.57239 2.87566 3.47448 4.58241 2.9805 6.96313C2.48652 9.34385 3.73225 11.7442 5.96347 12.7109C8.19469 13.6777 10.7982 12.9451 12.1976 10.9567C13.5971 8.96826 13.4079 6.27059 11.7446 4.49691L12.5205 5.26623L11.6459 4.39434L11.6305 4.37895C10.6711 3.41369 9.36514 2.87254 8.00408 2.87621Z" fill="#333333"/>
</svg>
