<svg width="154" height="67" viewBox="0 0 154 67" fill="none" xmlns="http://www.w3.org/2000/svg">
<path d="M13.6172 59.2552V23.1005H18.6908V46.7732H20.6308L27.1967 38.3084H33.4641L25.406 48.6383L33.6134 59.2552H27.3459L21.3769 51.3643H18.8401V59.2552H13.6172Z" fill="white"/>
<path d="M42.7163 59.6824C41.3733 59.6824 40.0303 59.3954 38.9857 58.965C37.9411 58.5346 37.0458 57.8173 36.2997 56.813C35.7028 55.8087 35.4043 54.6609 35.4043 53.3697C35.4043 52.2219 35.5535 51.2176 36.1504 50.5002C36.5981 49.7829 37.195 49.0655 37.9411 48.6351C38.6873 48.2047 39.5826 47.7743 40.6272 47.6308C41.6718 47.3439 42.5671 47.2004 43.7609 47.0569C45.1039 46.9135 46.1485 46.77 46.8946 46.77C47.6408 46.6265 48.2377 46.483 48.6853 46.3396C48.9838 46.0526 49.2822 45.7657 49.2822 45.3353V45.1918C49.2822 44.1875 48.9838 43.3267 48.3869 42.7528C47.79 42.1789 46.8946 41.892 45.7008 41.892C44.507 41.892 43.4625 42.1789 42.7163 42.7528C41.9702 43.3267 41.5225 43.9006 41.2241 44.6179L36.4489 43.9006C36.8966 42.6093 37.4935 41.605 38.3888 40.7442C39.2842 39.8834 40.3287 39.166 41.5225 38.7356C42.7163 38.3052 44.2086 38.0182 45.7008 38.0182C46.7454 38.0182 47.79 38.1617 48.8346 38.3052C49.8791 38.4487 50.7745 38.8791 51.6699 39.453C52.5652 40.0268 53.1621 40.7442 53.759 41.605C54.3559 42.4659 54.5051 43.7571 54.5051 45.0483V59.1085H49.5807V56.2391H49.4315C49.133 56.813 48.6853 57.3868 48.0884 57.8173C47.4915 58.3911 46.8946 58.6781 45.9993 59.1085C44.8055 59.5389 43.9101 59.6824 42.7163 59.6824ZM44.0594 55.9521C45.1039 55.9521 45.9993 55.8087 46.7454 55.3782C47.4915 54.9478 48.0884 54.5174 48.5361 53.8001C48.9838 53.0827 49.133 52.3654 49.133 51.648V49.209C48.9838 49.3525 48.6853 49.4959 48.3869 49.4959C47.9392 49.6394 47.6408 49.6394 47.0439 49.7829C46.5962 49.9263 46.1485 49.9263 45.7008 50.0698C45.2532 50.0698 44.8055 50.2133 44.507 50.2133C43.7609 50.3568 43.0148 50.5002 42.4179 50.6437C41.821 50.9306 41.3733 51.2176 40.9256 51.648C40.6272 52.0784 40.3287 52.5088 40.3287 53.2262C40.3287 54.087 40.6272 54.8044 41.3733 55.2348C42.1194 55.8087 43.0148 55.9521 44.0594 55.9521Z" fill="white"/>
<path d="M64.3536 38.1639V59.1107H59.4292V38.1639H64.3536ZM71.9641 53.3718L78.3808 38.1639H82.5591L73.7548 59.1107H70.1734L61.5183 38.1639H65.6967L71.9641 53.3718ZM79.7238 59.1107V38.1639H84.6483V59.1107H79.7238Z" fill="white"/>
<path d="M89.8716 58.9469V38.0001H108.226V58.9469H103.302V42.0173H94.796V58.9469H89.8716Z" fill="white"/>
<path d="M115.986 66.9994C115.24 66.9994 114.643 66.9994 114.047 66.8559C113.45 66.7125 113.002 66.569 112.703 66.4255L113.897 62.5518C114.643 62.6953 115.24 62.8387 115.837 62.8387C116.434 62.8387 116.882 62.6953 117.329 62.2649C117.777 61.9779 118.225 61.404 118.523 60.5432L118.971 59.3954L111.062 38.1617H116.583L121.657 53.9435H121.955L127.029 38.0182H132.55L123.895 61.5475C123.448 62.6953 123 63.5561 122.254 64.4169C121.508 65.2778 120.762 65.8516 119.866 66.2821C118.523 66.7125 117.329 66.9994 115.986 66.9994Z" fill="white"/>
<path d="M144.636 59.3986C142.398 59.3986 140.607 58.9682 138.966 57.9639C137.474 57.1031 136.28 55.8119 135.385 54.0902C134.489 52.512 134.191 50.6469 134.042 48.4948C134.042 46.3428 134.489 44.4776 135.235 42.8995C136.131 41.3213 137.324 40.03 138.817 39.0257C140.309 38.1649 142.249 37.591 144.338 37.591C146.129 37.591 147.621 37.878 149.113 38.4519C150.456 39.0257 151.65 39.8866 152.396 41.0343C153.142 42.1821 153.739 43.4733 153.739 45.0515H148.815C148.666 44.0472 148.069 43.1864 147.323 42.4691C146.576 41.7517 145.532 41.4648 144.338 41.4648C143.293 41.4648 142.398 41.7517 141.503 42.3256C140.757 42.8995 140.16 43.6168 139.712 44.6211C139.264 45.6254 139.115 46.7732 139.115 48.2079C139.115 49.6426 139.264 50.9338 139.712 51.9381C140.16 52.9424 140.757 53.8033 141.503 54.2337C142.249 54.8076 143.293 55.0945 144.338 55.0945C145.084 55.0945 145.83 54.951 146.427 54.6641C147.024 54.3771 147.472 53.9467 147.919 53.5163C148.367 52.9424 148.666 52.3686 148.815 51.6512H153.739C153.59 53.0859 153.142 54.5206 152.396 55.5249C151.65 56.6727 150.606 57.5335 149.262 58.2509C148.069 59.1117 146.427 59.3986 144.636 59.3986Z" fill="white"/>
<path d="M16.1536 27.5465L2.57414 14.4906C-0.858045 11.1907 -0.858045 5.73884 2.57414 2.43901C4.21561 0.860827 6.45399 0 8.8416 0C11.2292 0 13.4676 0.860827 15.1091 2.43901L16.1536 3.44331L17.1982 2.43901C18.8397 0.860827 21.0781 0 23.4657 0C25.8533 0 28.0917 0.860827 29.7331 2.43901C33.1653 5.73884 33.1653 11.1907 29.7331 14.4906L16.1536 27.5465ZM8.8416 4.73455C7.79702 4.73455 6.90167 5.16496 6.15554 5.88231C4.66329 7.31703 4.66329 9.75604 6.15554 11.1907L16.1536 20.8033L26.1517 11.1907C27.644 9.75604 27.644 7.31703 26.1517 5.88231C25.4056 5.16496 24.5103 4.73455 23.4657 4.73455C22.4211 4.73455 21.5257 5.16496 20.7796 5.88231L16.1536 10.3299L11.5277 5.88231C10.7815 5.16496 9.88617 4.73455 8.8416 4.73455Z" fill="white"/>
</svg>
