<svg width="15" height="26" viewBox="0 0 15 26" fill="none" xmlns="http://www.w3.org/2000/svg">
<path d="M7.60872 0C3.92372 0 0.936523 3.01657 0.936523 6.73759C0.936523 10.4587 3.92372 13.4755 7.60872 13.4755C11.2937 13.4755 14.2809 10.4587 14.2809 6.73759C14.2809 3.01657 11.2937 0 7.60872 0ZM7.60872 9.52295C6.08547 9.52295 4.85058 8.27586 4.85058 6.73768C4.85058 5.19951 6.08547 3.95252 7.60872 3.95252C9.13197 3.95252 10.3669 5.19951 10.3669 6.73768C10.3669 8.27586 9.13197 9.52295 7.60872 9.52295Z" fill="#222222"/>
<path d="M9.96419 18.8364C12.6353 18.2869 14.236 17.0096 14.3207 16.941C15.1023 16.308 15.2279 15.155 14.6011 14.3656C13.9743 13.5764 12.8326 13.4496 12.0508 14.0825C12.0343 14.096 10.327 15.4184 7.518 15.4204C4.70906 15.4184 2.96573 14.096 2.94921 14.0825C2.16739 13.4496 1.02569 13.5764 0.398939 14.3656C-0.22791 15.155 -0.102348 16.308 0.679279 16.941C0.765119 17.0105 2.43188 18.3211 5.17789 18.8577L1.35082 22.8965C0.655314 23.6249 0.676224 24.7846 1.39751 25.4869C1.74955 25.8297 2.20329 26.0001 2.65665 26.0001C3.13196 26.0001 3.6068 25.8125 3.96277 25.4397L7.51809 21.6152L11.4325 25.4645C12.1418 26.1795 13.2903 26.1784 13.9982 25.4624C14.7061 24.7464 14.7052 23.5865 13.9962 22.8717L9.96419 18.8364Z" fill="#222222"/>
</svg>
