<svg width="357" height="537" viewBox="0 0 357 400" fill="none" xmlns="http://www.w3.org/2000/svg">
<path d="M324.794 333.322C400.297 402.638 328.995 526.137 231.214 495.407L203.932 486.833C121.757 461.007 32.2676 474.477 -38.6637 523.348V523.348C-93.6446 561.229 -167.899 517.537 -162.583 450.982V450.982C-155.785 365.854 -187.858 281.591 -249.9 222.907L-268.235 205.565C-340.809 136.919 -271.678 17.1795 -175.942 45.7078L-151.755 52.9152C-69.9122 77.3034 19.0979 62.9484 89.4217 14.4964V14.4964C144.403 -23.3846 219.368 19.0758 214.052 85.6311V85.6311C207.195 171.495 240.274 255.73 303.727 313.982L324.794 333.322Z" fill="#FFD8D8"/>
</svg>
