<svg width="842" height="70" viewBox="0 0 842 70" fill="none" xmlns="http://www.w3.org/2000/svg">
<path d="M36.2242 69.2159C25.9842 69.2159 17.3762 66.0799 10.4002 59.8079C3.48823 53.5359 0.0322266 45.2159 0.0322266 34.8479C0.0322266 24.6079 3.55223 16.2879 10.5922 9.88792C17.6322 3.42392 26.1762 0.191921 36.2242 0.191921C42.5602 0.191921 48.1922 1.40792 53.1202 3.83993C58.0482 6.27192 61.9522 9.40792 64.8322 13.2479L54.0802 21.4079C49.6002 15.9679 43.9042 13.2479 36.9922 13.2479C31.2322 13.2479 26.3042 15.2639 22.2082 19.2959C18.1762 23.2639 16.1602 28.4479 16.1602 34.8479C16.1602 41.1839 18.1762 46.3039 22.2082 50.2079C26.2402 54.1119 31.1682 56.0639 36.9922 56.0639C44.3522 56.0639 50.1122 53.3119 54.2722 47.8079L64.5442 55.2959C62.2402 59.0719 58.6242 62.3359 53.6962 65.0879C48.7682 67.8399 42.9442 69.2159 36.2242 69.2159Z" fill="white"/>
<path d="M70.1077 14.1119V1.05592H127.804V14.1119H107.068L106.972 68.2559H90.8437V14.1119H70.1077Z" fill="white"/>
<path d="M120.438 68.2559L151.062 1.05592H167.958L198.486 68.2559H181.59L176.022 55.8719H142.998L137.43 68.2559H120.438ZM148.758 43.0079H170.262L159.51 19.3919L148.758 43.0079Z" fill="white"/>
<path d="M200.389 1.05592H219.397L242.053 28.1279H246.949V1.05592H263.077V28.1279H268.069L290.725 1.05592H309.733L281.701 34.6559L309.733 68.2559H290.725L267.973 41.1839H263.077V68.2559H246.949V41.1839H242.149L219.397 68.2559H200.389L228.421 34.6559L200.389 1.05592Z" fill="white"/>
<path d="M319.046 68.2559V1.05592H335.174V43.1039L365.606 1.05592H382.118V68.2559H365.99V26.4959L335.846 68.2559H319.046Z" fill="white"/>
<path d="M412.799 68.2559H396.671V1.05592L525.47 1.056C532.766 1.056 538.654 3.264 543.134 7.68C547.678 12.032 549.95 17.536 549.95 24.192C549.95 30.72 547.71 36.224 543.23 40.704C538.814 45.12 532.894 47.328 525.47 47.328L412.799 47.3279V68.2559ZM412.799 14.1119V34.2719L523.838 34.272C527.294 34.272 529.918 33.312 531.71 31.392C533.566 29.472 534.494 27.072 534.494 24.192C534.494 21.184 533.534 18.752 531.614 16.896C529.758 15.04 527.166 14.112 523.838 14.112L412.799 14.1119Z" fill="white"/>
<path d="M557.08 34.464C557.08 24.736 560.536 16.576 567.448 9.984C574.424 3.328 583.032 0 593.272 0C603.576 0 612.184 3.328 619.096 9.984C626.072 16.64 629.528 24.8 629.464 34.464C629.4 44.256 625.88 52.512 618.904 59.232C611.992 65.952 603.448 69.312 593.272 69.312C583.096 69.312 574.52 65.92 567.544 59.136C560.568 52.352 557.08 44.128 557.08 34.464ZM579.064 19.872C575.16 23.84 573.208 28.704 573.208 34.464C573.208 40.224 575.16 45.184 579.064 49.344C583.032 53.504 587.768 55.584 593.272 55.584C598.84 55.584 603.576 53.504 607.48 49.344C611.448 45.184 613.432 40.224 613.432 34.464C613.368 28.704 611.384 23.84 607.48 19.872C603.576 15.84 598.84 13.824 593.272 13.824C587.704 13.824 582.968 15.84 579.064 19.872Z" fill="white"/>
<path d="M640.781 68.256V1.056H676.205C684.269 1.056 690.349 2.688 694.445 5.952C698.605 9.216 700.685 13.376 700.685 18.432C700.685 21.696 699.885 24.608 698.285 27.168C696.749 29.664 694.573 31.552 691.757 32.832C695.021 33.728 697.709 35.552 699.821 38.304C701.997 40.992 703.085 44.352 703.085 48.384C703.085 54.4 700.941 59.232 696.653 62.88C692.429 66.464 686.285 68.256 678.221 68.256H640.781ZM656.909 55.2H677.165C680.301 55.2 682.701 54.528 684.365 53.184C686.093 51.776 686.957 49.856 686.957 47.424C686.957 42.432 683.757 39.936 677.357 39.936H656.909V55.2ZM675.437 14.112H656.909V28.032H675.437C681.645 28.032 684.749 25.664 684.749 20.928C684.749 18.816 683.949 17.152 682.349 15.936C680.749 14.72 678.445 14.112 675.437 14.112Z" fill="white"/>
<path d="M730.503 68.256H714.375V1.056H730.503V28.128H737.991L760.647 1.056H779.655L751.623 34.656L779.655 68.256H760.647L737.991 41.184H730.503V68.256Z" fill="white"/>
<path d="M789 68.256V1.056H841.608V13.92H805.128V28.416H836.616V40.896H805.128V55.392H841.608V68.256H789Z" fill="white"/>
</svg>
