<svg width="121" height="196" viewBox="0 0 121 196" fill="none" xmlns="http://www.w3.org/2000/svg">
<path fill-rule="evenodd" clip-rule="evenodd" d="M83.1752 97.5554C100.159 89.1577 111.838 71.6567 111.838 51.4278C111.838 23.025 88.8131 0 60.4103 0C32.0075 0 8.98255 23.025 8.98255 51.4278C8.98255 71.6566 20.6619 89.1576 37.6453 97.5553L0 196H120.821L83.1752 97.5554Z" fill="#E0D9FB"/>
<path d="M101.402 52.8861C101.402 52.8861 83.0941 70.8719 60.5108 70.8719C37.9275 70.8719 19.6201 52.8861 19.6201 52.8861C19.6201 52.8861 37.9275 34.9004 60.5108 34.9004C83.0941 34.9004 101.402 52.8861 101.402 52.8861Z" fill="white"/>
<circle cx="60.5108" cy="52.8861" r="14.1426" fill="black"/>
</svg>
