<svg width="100" height="100" viewBox="0 0 137 137" fill="none" xmlns="http://www.w3.org/2000/svg">
<circle cx="68.5" cy="68.5" r="68.5" fill="#F52D30"/>
<mask id="mask0_31_167" style="mask-type:alpha" maskUnits="userSpaceOnUse" x="0" y="0" width="137" height="137">
<circle cx="68.5" cy="68.5" r="68.5" fill="#F52D30"/>
</mask>
<g mask="url(#mask0_31_167)">
<path d="M38.1379 53.5853C40.368 51.3572 43.3341 50.1308 46.4881 50.1308C49.642 50.1308 52.6058 51.3572 54.8378 53.5853L68.7575 67.4942L82.6792 53.5864V53.5853C84.9089 51.3572 87.875 50.1308 91.027 50.1308C94.181 50.1308 97.1471 51.3572 99.3772 53.5864C103.98 58.1853 103.98 65.6686 99.3772 70.2679L68.7575 100.858L38.1379 70.2691C33.5348 65.6686 33.5348 58.1853 38.1379 53.5853ZM76.5243 114.464L110.069 80.9506C120.569 70.4606 120.569 53.3925 110.069 42.9033C104.984 37.8218 98.2209 35.0225 91.027 35.0225C83.8351 35.0225 77.0736 37.8207 71.9874 42.9021L68.7575 46.1283L65.5296 42.9021C60.4434 37.8207 53.6796 35.0225 46.4881 35.0225C39.2938 35.0225 32.5304 37.8218 27.4461 42.9021C16.9465 53.3925 16.9465 70.4606 27.4461 80.9518L60.8409 114.315V283.786H76.5243V114.464Z" fill="white"/>
</g>
</svg>
