<svg width="30" height="25" viewBox="0 0 30 25" fill="none" xmlns="http://www.w3.org/2000/svg">
<path fill-rule="evenodd" clip-rule="evenodd" d="M22.9801 24.7253C23.1785 24.8661 23.4083 24.9562 23.6496 24.9876C23.8908 25.019 24.1361 24.9907 24.3638 24.9052C24.5904 24.8197 24.7919 24.6788 24.9499 24.4954C25.108 24.312 25.2177 24.0919 25.2688 23.8553C26.3551 18.7503 28.99 5.83031 29.9788 1.18533C30.0154 1.01277 30.0045 0.833508 29.9473 0.666651C29.89 0.499794 29.7886 0.351589 29.6538 0.237829C29.5183 0.12273 29.3545 0.04584 29.1794 0.01508C29.0043 -0.0156799 28.8242 0.000803095 28.6575 0.0628303C23.4164 2.00282 7.27532 8.05905 0.67791 10.5003C0.474402 10.5749 0.299495 10.7116 0.177919 10.891C0.0563434 11.0705 -0.00575002 11.2836 0.000418935 11.5003C0.0154187 11.9415 0.312915 12.3253 0.74166 12.454C3.70037 13.339 7.58407 14.5703 7.58407 14.5703C7.58407 14.5703 9.39904 20.0515 10.3465 22.839C10.464 23.189 10.7378 23.464 11.099 23.559C11.2761 23.6051 11.4619 23.6055 11.6392 23.5602C11.8165 23.515 11.9794 23.4255 12.1128 23.3003L15.9827 19.6465C15.9827 19.6465 20.4477 22.9215 22.9801 24.724V24.7253ZM9.2178 13.8778L11.3178 20.8003L11.7828 16.4165L24.5138 4.93406C24.5789 4.87523 24.6194 4.79395 24.627 4.70654C24.6347 4.61913 24.609 4.53206 24.5551 4.46281C24.5007 4.39353 24.4224 4.34696 24.3355 4.33218C24.2487 4.31739 24.1594 4.33544 24.0851 4.38281L9.2178 13.8778Z" fill="#222222"/>
</svg>
