<svg width="20" height="19" viewBox="0 0 20 19" fill="none" xmlns="http://www.w3.org/2000/svg">
<path d="M19.474 3.07888L10.2432 0.0389641C10.0853 -0.012988 9.91465 -0.012988 9.75675 0.0389641L0.54076 3.07401L0.539821 3.07433L0.525982 3.07888C0.523271 3.07976 0.520886 3.08122 0.518188 3.08215C0.484878 3.09348 0.452404 3.10709 0.421002 3.12287C0.417398 3.12468 0.413654 3.12621 0.410086 3.12807C0.378979 3.14448 0.349056 3.16299 0.320529 3.18348C0.314237 3.18793 0.308125 3.19252 0.301983 3.19716C0.274241 3.21791 0.24794 3.24048 0.22326 3.26472C0.220971 3.26701 0.218988 3.26952 0.216734 3.27181C0.193965 3.29524 0.172736 3.32009 0.153176 3.3462C0.149173 3.35148 0.14503 3.35663 0.14118 3.36204C0.120992 3.39023 0.102773 3.41974 0.0866472 3.45038C0.0841587 3.45511 0.0820231 3.45996 0.079628 3.46473C0.0645803 3.49476 0.051566 3.52573 0.0406711 3.55746C0.0396499 3.56045 0.0383826 3.56328 0.0373971 3.56629C0.0265373 3.60004 0.0180928 3.63449 0.012126 3.66941C0.0108462 3.67669 0.00981348 3.68395 0.0087606 3.69126C0.00322229 3.72722 0.000294608 3.76352 0 3.79989V11.3997C0 11.6012 0.0810437 11.7945 0.225302 11.9371C0.369561 12.0796 0.565218 12.1597 0.769231 12.1597C0.973243 12.1597 1.1689 12.0796 1.31316 11.9371C1.45742 11.7945 1.53846 11.6012 1.53846 11.3997V4.85435L4.76781 5.91785C3.9117 7.28358 3.63775 8.92864 4.00586 10.4934C4.37396 12.0581 5.35417 13.4152 6.73218 14.2679C4.89727 14.9534 3.33152 16.1992 2.26257 17.8243C2.20728 17.9079 2.1692 18.0015 2.15052 18.0996C2.13185 18.1978 2.13293 18.2986 2.15371 18.3963C2.1745 18.494 2.21458 18.5868 2.27166 18.6692C2.32873 18.7516 2.4017 18.8221 2.48637 18.8766C2.57104 18.9312 2.66577 18.9687 2.76513 18.9871C2.86448 19.0054 2.96653 19.0042 3.06543 18.9836C3.16433 18.963 3.25814 18.9233 3.3415 18.8668C3.42486 18.8103 3.49614 18.7382 3.55126 18.6544C4.2501 17.5937 5.20594 16.7222 6.33206 16.1189C7.45818 15.5156 8.71894 15.1996 9.99998 15.1996C11.281 15.1996 12.5418 15.5156 13.6679 16.1189C14.794 16.7222 15.7499 17.5937 16.4487 18.6544C16.5039 18.738 16.5752 18.8101 16.6585 18.8665C16.7419 18.9228 16.8356 18.9624 16.9345 18.983C17.0333 19.0036 17.1353 19.0047 17.2346 18.9864C17.3339 18.968 17.4285 18.9305 17.5131 18.876C17.5978 18.8215 17.6707 18.751 17.7277 18.6687C17.7848 18.5863 17.8249 18.4937 17.8457 18.396C17.8665 18.2984 17.8677 18.1976 17.8491 18.0995C17.8305 18.0014 17.7925 17.9079 17.7374 17.8243C16.6685 16.1992 15.1027 14.9534 13.2678 14.2679C14.6458 13.4152 15.626 12.0581 15.9941 10.4934C16.3623 8.92865 16.0883 7.28358 15.2322 5.91785L19.474 4.52091C19.6272 4.47046 19.7604 4.37368 19.8548 4.24427C19.9492 4.11487 20 3.9594 20 3.79989C20 3.64038 19.9492 3.48491 19.8548 3.35551C19.7604 3.22611 19.6272 3.12933 19.474 3.07888ZM10 13.6796C9.14637 13.6798 8.30942 13.446 7.58224 13.0042C6.85506 12.5625 6.26615 11.9302 5.88101 11.1775C5.49586 10.4249 5.32957 9.58145 5.40063 8.74101C5.4717 7.90057 5.77733 7.09608 6.28353 6.417L9.75675 7.56082C9.91465 7.61277 10.0853 7.61277 10.2432 7.56082L13.7165 6.417C14.2227 7.09608 14.5283 7.90057 14.5994 8.74101C14.6704 9.58145 14.5041 10.4249 14.119 11.1775C13.7338 11.9302 13.1449 12.5625 12.4178 13.0042C11.6906 13.446 10.8536 13.6798 10 13.6796Z" fill="#3A2449"/>
</svg>
