<svg width="27" height="25" viewBox="0 0 27 25" fill="none" xmlns="http://www.w3.org/2000/svg">
<path fill-rule="evenodd" clip-rule="evenodd" d="M0 12.362C5.97756 12.1946 8.71043 12.0565 10.8916 10.0848C13.021 8.06522 13.1713 5.53587 13.3509 0C7.78656 0 3.93026 0.0173915 1.95222 1.80761C0.0176088 3.63913 0 7.37717 0 12.362ZM0 12.638C0 17.6228 0.0187822 21.3609 1.95104 23.1924C3.93026 24.9837 7.78539 25 13.3497 25C13.3368 24.5696 13.3227 24.1576 13.3087 23.762C13.1349 19.075 12.8555 16.7772 10.8916 14.9141C8.71161 12.9435 5.97756 12.8054 0 12.638ZM13.6491 25C19.2134 25 23.0686 24.9837 25.0478 23.1935C26.9812 21.3609 27 17.6228 27 12.6391C21.0224 12.8054 18.2896 12.9435 16.1084 14.9152C14.6446 16.3033 14.1163 17.9326 13.871 20.6152C13.7594 21.8337 13.7066 23.2707 13.6491 25ZM27 12.362C27 7.37717 26.9812 3.63913 25.0478 1.80761C23.0686 0.0173915 19.2134 0 13.6491 0C13.8299 5.53478 13.979 8.0663 16.1084 10.0848C18.2884 12.0565 21.0224 12.1946 27 12.362Z" fill="#222222"/>
</svg>
